<?xml version="1.0" encoding="utf-8"?>
<!-- Generator: Adobe Illustrator 21.1.0, SVG Export Plug-In . SVG Version: 6.00 Build 0)  -->
<svg version="1.1" id="Capa_1" xmlns="http://www.w3.org/2000/svg" xmlns:xlink="http://www.w3.org/1999/xlink" x="0px" y="0px"
	 viewBox="0 0 696.3 111.2" style="enable-background:new 0 0 696.3 111.2;" xml:space="preserve">
<style type="text/css">
	.st0{fill:#FF9838;}
	.st1{fill:#BAB0A8;}
	.st2{fill:#E3E100;}
	.st3{fill:#FFFFFF;}
	.st4{opacity:0.78;}
	.st5{fill:#FF9000;}
	.st6{fill:#55DA3D;}
	.st7{fill:#FF10A3;}
	.st8{opacity:0.5;}
</style>
<g>
	<g class="st4">
		<path class="st3" d="M2.2,108.3c-1.6-0.5-2.6-2.3-2.1-3.9c0.5-1.6,2.3-2.4,3.9-1.9c9.1,2.8,21.7,3.6,28.1-1.1
			c3.1-2.3,4.5-5.5,4.5-9.9c0-10.2-7.9-13.4-17.1-17.3C11,70.6,1.3,66.4,1.3,55.1c0-4.7,1.6-8.6,5-11.3c8.2-7,24.4-5,30.9-3.9
			c1.6,0.2,2.7,1.8,2.6,3.6c-0.3,1.6-1.9,2.7-3.6,2.4c-9.2-1.6-20.9-1.8-26,2.6c-1.9,1.6-2.8,3.7-2.8,6.6c0,7,5.5,9.7,14.6,13.4
			c9.2,3.9,20.7,8.7,20.7,23c0,6.3-2.3,11.3-6.8,14.7c-4.7,3.4-10.8,4.7-17.1,4.7C12.9,110.9,6.9,109.8,2.2,108.3z"/>
		<path class="st3" d="M120.4,108.9L99.1,50.6l-21.3,58.4c-0.5,1.1-1.6,1.9-2.9,1.9c-1.3,0-2.4-0.8-2.9-1.9L47.7,42.6
			c-0.5-1.5,0.3-3.2,1.9-3.9c1.5-0.5,3.2,0.3,3.9,1.8l21.3,58.4l21.3-58.4c0.5-1.1,1.6-1.9,2.9-1.9c1.3,0,2.4,0.8,2.9,1.9l21.3,58.4
			l21.3-58.4c0.6-1.5,2.4-2.3,3.9-1.8c1.6,0.6,2.4,2.4,1.9,3.9l-24.3,66.3c-0.5,1.1-1.6,1.9-2.9,1.9
			C122.1,110.9,120.9,110.1,120.4,108.9z"/>
		<path class="st3" d="M210.4,64.8v8.6c0,1.6-1.5,3.1-3.1,3.1h-44v8.4c0,6.6,1.5,11.5,4.4,14.6c3.4,3.6,9.1,5.3,17.1,5.3
			c7.1,0,13.1-1,17.8-2.7c1.6-0.6,3.4,0,4,1.6c0.6,1.6-0.2,3.4-1.8,4c-5.5,2.1-12.1,3.2-20.1,3.2c-9.9,0-17.1-2.4-21.5-7.3
			c-4-4.2-6.1-10.3-6.1-18.8V64.6c0-8.2,2.1-14.4,6.1-18.8c4-4.4,10.7-6.8,19.4-7.3v0.2v-0.2c9.9,0,17.1,2.6,21.5,7.4
			C208.4,50.2,210.4,56.4,210.4,64.8z M204.2,64.8c0-6.8-1.5-11.5-4.4-14.7c-3.4-3.6-9.1-5.3-17-5.3c-7.1,0.3-12.1,2.1-15.2,5.3
			c-2.9,3.1-4.4,7.9-4.4,14.6v5.7h40.9V64.8z"/>
		<path class="st3" d="M274.9,64.8v8.6c0,1.6-1.5,3.1-3.1,3.1h-44v8.4c0,6.6,1.5,11.5,4.4,14.6c3.4,3.6,9.1,5.3,17.1,5.3
			c7.1,0,13.1-1,17.8-2.7c1.6-0.6,3.4,0,4,1.6c0.6,1.6-0.2,3.4-1.8,4c-5.5,2.1-12.1,3.2-20.1,3.2c-9.9,0-17.1-2.4-21.5-7.3
			c-4-4.2-6.1-10.3-6.1-18.8V64.6c0-8.2,2.1-14.4,6.1-18.8c4-4.4,10.7-6.8,19.4-7.3v0.2v-0.2c9.9,0,17.1,2.6,21.5,7.4
			C272.9,50.2,274.9,56.4,274.9,64.8z M268.7,64.8c0-6.8-1.5-11.5-4.4-14.7c-3.4-3.6-9.1-5.3-17-5.3c-7.1,0.3-12.1,2.1-15.2,5.3
			c-2.9,3.1-4.4,7.9-4.4,14.6v5.7h40.9V64.8z"/>
		<path class="st3" d="M326.1,107.7c0,1.6-1.3,3.1-3.1,3.1c0,0,0,0-0.2,0c-2.1,0-15.4-0.3-24.9-9.7c-6.3-6.1-9.4-14.6-9.4-25.2V41.5
			V10.1c0-1.6,1.3-3.1,3.1-3.1c1.6,0,2.9,1.5,2.9,3.1v28.3h21.5c1.8,0,3.1,1.5,3.1,3.1c0,1.6-1.3,3.1-3.1,3.1h-21.5v31.2
			c0,8.9,2.6,16,7.6,20.9c8.2,8.1,20.7,7.9,20.7,7.9c0.2,0,0.2,0,0.2,0C324.7,104.6,326.1,105.9,326.1,107.7z"/>
	</g>
	<g>
		<g>
			<g>
				<path class="st3" d="M383.1,75.1c-1.3-3-4-6-8-8.9c-3.3-2.3-6.8-4.2-10.5-5.5c-6.3-2.3-8.9-3.3-9.2-3.4c-3.5-1.9-5.2-4.1-5.2-7
					c0-2.3,1.1-4.1,3.3-5.6c2-1.3,4.2-2,6.7-2c4.7,0,9.2,1.7,13.5,4.9L374,48l8.7-10.1l-0.4-0.4c-4.9-5.6-12.2-8.5-21.9-8.5
					c-6.5,0-12.3,1.8-17.2,5.4c-5.5,4-8.2,9.3-8.2,15.7c0,7.3,3.2,13,9.5,17.1c5.7,2.6,11.3,5.2,17,7.9c5.9,2.8,8.7,6.1,8.7,10.1
					c0,3.4-1.1,6.3-3.2,8.5c-2.1,2.3-4.9,3.4-8.2,3.4c-7.4-1-13.8-4.7-19-11l-0.4-0.5l-9.8,9.7l0.4,0.4c2.8,2.8,5.9,5.8,9.3,8.8
					c5.1,4.3,11.4,6.5,18.9,6.5c7,0,13.3-2.5,18.7-7.6c5.5-5,8.2-11.1,8.2-18c0-1.6-0.2-3.3-0.7-5.2C384.2,78,383.6,76.2,383.1,75.1
					z"/>
			</g>
		</g>
		<g>
			<g>
				<path class="st3" d="M437.9,77.5c0,13.2-5.2,19.6-15.9,19.6c-5.3,0-9.4-1.8-12.1-5.4c-2.4-3.3-3.7-7.8-3.7-13.5V30.7h-15v49.8
					c0,8.8,2.9,16.2,8.7,22c5.8,5.8,13.2,8.7,22,8.7c9,0,16.5-3,22.3-8.8c5.8-5.9,8.7-13.4,8.7-22.4V30.7h-15V77.5z"/>
			</g>
		</g>
		<g>
			<g>
				<path class="st3" d="M501.6,29.1c-11.5,0-21.6,3.9-29.9,11.6c-8.5,8-12.9,17.8-12.9,29.3c0,11.6,4.3,21.5,12.7,29.3
					c8.4,7.9,18.5,11.9,30.1,11.9c11.5,0,21.6-4,30.1-12c8.5-7.9,12.8-17.8,12.8-29.2c0-11.5-4.3-21.3-12.9-29.3
					C523.1,33,513.1,29.1,501.6,29.1z M521.2,89.2c-5.5,5.3-12.1,8-19.6,8c-7.6,0-14.2-2.7-19.6-7.9c-5.5-5.2-8.3-11.7-8.3-19.2
					c0-7.7,2.7-14.2,8.2-19.4c5.4-5.2,12-7.8,19.7-7.8c7.7,0,14.3,2.7,19.8,7.9c5.4,5.2,8.1,11.8,8.1,19.4
					C529.4,77.5,526.7,83.9,521.2,89.2z"/>
			</g>
		</g>
		<g>
			<g>
				<polygon class="st3" points="551,26.6 551,109.8 567,109.8 567,68.8 590.3,93.3 613.5,68.8 613.9,109.8 629,109.8 629,27 
					589.8,70.5 				"/>
			</g>
		</g>
		<g>
			<g>
				<rect x="637.7" y="30.7" class="st3" width="15" height="78.7"/>
			</g>
		</g>
	</g>
	<g>
		<g>
			<rect x="659.9" y="14.3" class="st7" width="36.4" height="7.7"/>
		</g>
		<g>
			<rect x="674.2" class="st7" width="7.7" height="36.4"/>
		</g>
		<g>
			
				<rect x="659.9" y="14.3" transform="matrix(0.7072 -0.707 0.707 0.7072 185.6727 484.756)" class="st7" width="36.4" height="7.7"/>
		</g>
		<g>
			
				<rect x="674.2" y="0" transform="matrix(0.7073 -0.7069 0.7069 0.7073 185.6378 484.7192)" class="st7" width="7.7" height="36.4"/>
		</g>
	</g>
</g>
</svg>
